<svg width="78" height="78" viewBox="0 0 78 78" fill="none" xmlns="http://www.w3.org/2000/svg">
<g clip-path="url(#clip0_153_40)">
<mask id="mask0_153_40" style="mask-type:luminance" maskUnits="userSpaceOnUse" x="0" y="0" width="78" height="78">
<path d="M78 0H0V78H78V0Z" fill="white"/>
</mask>
<g mask="url(#mask0_153_40)">
<path d="M39 0C31.2865 0 23.7463 2.28731 17.3328 6.57269C10.9193 10.8581 5.92053 16.949 2.96872 24.0753C0.0168977 31.2017 -0.755432 39.0433 0.749392 46.6085C2.25422 54.1738 5.96861 61.1229 11.4229 66.5772C16.8771 72.0314 23.8262 75.7458 31.3915 77.2506C38.9568 78.7554 46.7984 77.9831 53.9247 75.0313C61.051 72.0795 67.142 67.0808 71.4273 60.6672C75.7127 54.2537 78 46.7135 78 39C77.9887 28.66 73.8762 18.7468 66.5647 11.4353C59.2532 4.12383 49.34 0.0112908 39 0ZM39 75.5625C31.7686 75.5625 24.6997 73.4181 18.687 69.4006C12.6743 65.3831 7.988 59.6728 5.22067 52.9919C2.45334 46.3109 1.72928 38.9594 3.14006 31.867C4.55083 24.7746 8.03307 18.2598 13.1464 13.1464C18.2598 8.03305 24.7746 4.55081 31.867 3.14004C38.9595 1.72927 46.311 2.45333 52.9919 5.22065C59.6728 7.98798 65.3831 12.6743 69.4006 18.687C73.4182 24.6996 75.5625 31.7686 75.5625 39C75.5512 48.6935 71.6955 57.9868 64.8411 64.8411C57.9868 71.6955 48.6935 75.5512 39 75.5625Z" fill="black"/>
<path d="M47.8359 20.7188H18.5859C18.2627 20.7188 17.9527 20.8472 17.7242 21.0757C17.4956 21.3043 17.3672 21.6143 17.3672 21.9375C17.3672 22.2607 17.4956 22.5706 17.7242 22.7992C17.9527 23.0277 18.2627 23.1562 18.5859 23.1562H47.8359C51.2299 23.1562 54.4848 24.5045 56.8847 26.9044C59.2846 29.3042 60.6328 32.5591 60.6328 35.953C60.6328 39.347 59.2846 42.602 56.8847 45.0019C54.4848 47.4018 51.2299 48.75 47.8359 48.75H21.5292L32.8636 37.4277C32.9772 37.3145 33.0674 37.1801 33.1291 37.032C33.1907 36.8839 33.2226 36.7251 33.2229 36.5647C33.2232 36.4042 33.1919 36.2453 33.1307 36.097C33.0696 35.9487 32.9799 35.8138 32.8666 35.7001C32.7534 35.5865 32.6189 35.4964 32.4708 35.4347C32.3227 35.3731 32.1639 35.3412 32.0035 35.3409C31.8431 35.3406 31.6842 35.372 31.5358 35.4331C31.3875 35.4942 31.2527 35.584 31.1391 35.6972L17.7328 49.1034L17.6841 49.1643C17.6448 49.2029 17.6101 49.2459 17.5805 49.2923L17.5439 49.3532L17.4647 49.4995V49.5727C17.4647 49.6275 17.4281 49.6761 17.4159 49.7249C17.3831 49.8857 17.3831 50.0517 17.4159 50.2125C17.4159 50.2613 17.4464 50.3099 17.4647 50.3647V50.438L17.5439 50.5842L17.5805 50.6451C17.6116 50.6923 17.6462 50.7372 17.6841 50.7792C17.7018 50.7961 17.7181 50.8144 17.7328 50.834L31.1391 64.2403C31.2523 64.3536 31.3867 64.4434 31.5346 64.5048C31.6826 64.5661 31.8412 64.5978 32.0013 64.5978C32.1615 64.5978 32.3201 64.5661 32.468 64.5048C32.616 64.4434 32.7504 64.3536 32.8636 64.2403C32.9769 64.1271 33.0668 63.9926 33.1281 63.8447C33.1895 63.6967 33.221 63.5381 33.221 63.3779C33.221 63.2178 33.1895 63.0593 33.1281 62.9113C33.0668 62.7634 32.9769 62.629 32.8636 62.5158L21.5292 51.1875H47.8359C51.8763 51.1875 55.7513 49.5824 58.6083 46.7254C61.4653 43.8684 63.0703 39.9934 63.0703 35.953C63.0703 31.9126 61.4653 28.0378 58.6083 25.1807C55.7513 22.3237 51.8763 20.7188 47.8359 20.7188Z" fill="black"/>
</g>
</g>
<defs>
<clipPath id="clip0_153_40">
<rect width="78" height="78" fill="white"/>
</clipPath>
</defs>
</svg>
