<svg width="78" height="78" viewBox="0 0 78 78" fill="none" xmlns="http://www.w3.org/2000/svg">
<mask id="path-1-inside-1_153_46" fill="white">
<path d="M73.6549 48.7771C72.5381 48.3091 71.2409 48.0368 69.8801 48.0368C68.3495 48.0368 66.9011 48.3805 65.6066 48.9939L65.6676 48.9675L50.3403 55.8283C50.3483 55.7041 50.4093 55.5983 50.4093 55.4741C50.3695 51.8493 47.4144 48.9278 43.7722 48.9278C43.5892 48.9278 43.4088 48.9357 43.2311 48.949L43.2549 48.9463H33.2198L20.5929 45.2581C20.4284 45.2052 20.2401 45.1761 20.0438 45.1761H20.0332H14.2795V43.1747C14.2795 42.0801 13.3882 41.1918 12.29 41.1918H1.98953C0.891308 41.1918 0 42.0801 0 43.1747V75.4513C0 76.5459 0.891308 77.4342 1.98953 77.4342H12.29C13.3882 77.4342 14.2795 76.5459 14.2795 75.4513V72.7942C19.1021 73.545 23.418 74.7559 27.5085 76.4084L27.1132 76.2656C30.1639 77.3655 33.6866 78 37.358 78C37.3765 78 37.3951 78 37.4137 78H37.411C37.4243 78 37.4402 78 37.4561 78C41.7111 78 45.767 77.1566 49.4676 75.6258L49.2606 75.7025C52.558 74.2404 55.3566 72.699 58.0066 70.9461L57.7891 71.0809C58.6857 70.5284 59.577 69.9758 60.4789 69.4444C64.8108 66.8877 68.2911 64.6431 71.4319 62.3799C72.9678 61.2906 74.3048 60.2146 75.5781 59.0671L75.5409 59.1015C76.5304 58.303 77.3209 57.2983 77.8514 56.1509L77.8727 56.1007C77.9549 55.8918 78 55.6512 78 55.3974C78 55.2467 77.9841 55.1013 77.9522 54.9612L77.9549 54.9744C77.5676 52.2855 75.9521 50.0409 73.7026 48.7956L73.6602 48.7745L73.6549 48.7771ZM10.3004 73.471H3.97905V45.1576H10.3004V73.471ZM72.7397 56.2857C71.6468 57.264 70.4584 58.2131 69.2169 59.0935L69.0922 59.1782C66.0602 61.362 62.678 63.5406 58.4443 66.0417C57.5212 66.5837 56.6113 67.1468 55.6934 67.71C53.428 69.2249 50.8204 70.6711 48.0961 71.9032L47.7513 72.0433C44.6953 73.2965 41.146 74.0209 37.4269 74.0209C34.2357 74.0209 31.1692 73.4842 28.3123 72.5007L28.5086 72.5589C24.3836 70.8456 19.5875 69.5316 14.5872 68.8389L14.2768 68.8046V49.1446H19.7467L32.3736 52.8328C32.538 52.8857 32.7264 52.9148 32.9227 52.9148H32.9333H43.2523C45.5946 52.9148 46.4276 54.2923 46.4276 55.4767C46.4276 56.6612 45.5946 58.0386 43.2523 58.0386H25.19C24.0918 58.0386 23.2005 58.927 23.2005 60.0216C23.2005 61.1161 24.0918 62.0045 25.19 62.0045H45.8307H45.8413C46.1331 62.0045 46.409 61.941 46.6557 61.8247L46.6451 61.83L67.3229 52.5764C68.0869 52.2274 68.9808 52.0238 69.9225 52.0238C70.6255 52.0238 71.3019 52.1375 71.9333 52.3463L71.8882 52.3331C72.9042 52.9412 73.6337 53.93 73.883 55.0986L73.8883 55.1277C73.5276 55.5481 73.1509 55.9262 72.7503 56.2778L72.737 56.2884L72.7397 56.2857ZM40.146 40.9485C40.512 41.3531 41.0373 41.6042 41.6235 41.6042C42.2098 41.6042 42.735 41.3531 43.0984 40.9512L43.1011 40.9485L58.935 23.4566C61.8053 20.7942 63.6409 17.0557 63.7948 12.889V12.8625C63.7948 12.8308 63.7948 12.7938 63.7948 12.7568C63.7948 9.2351 62.3544 6.05186 60.028 3.75432C57.6299 1.43299 54.3565 0 50.7435 0C47.2048 0 43.9897 1.37482 41.605 3.6142C39.3475 1.70266 36.4083 0.534066 33.1879 0.534066C32.042 0.534066 30.9331 0.682123 29.8747 0.957088L29.9649 0.935936C25.3121 2.25259 21.723 5.83242 20.4231 10.372L20.3993 10.4698C20.1499 11.4322 20.0067 12.5347 20.0067 13.6742C20.0067 17.521 21.6487 20.9872 24.2749 23.4116L24.2828 23.4196L40.146 40.9485ZM24.243 11.4983C25.1741 8.22514 27.7075 5.70022 30.9225 4.78544L30.9915 4.76958C31.652 4.5845 32.4133 4.47875 33.1985 4.47875C35.9786 4.56864 38.4588 5.78219 40.2096 7.67521L40.2149 7.68314C40.5757 8.04271 41.0718 8.2648 41.6209 8.2648C42.17 8.2648 42.6687 8.04271 43.0268 7.68314C44.9951 5.52044 47.7751 4.12182 50.8814 3.96319H50.908H50.9743C55.8606 3.99492 59.8078 7.95017 59.8078 12.8229C59.8078 12.8281 59.8078 12.8308 59.8078 12.8361C59.6486 15.9612 58.2453 18.7293 56.086 20.6858L56.0781 20.6937L56.0065 20.7677L41.6182 36.6654L27.161 20.6937C25.206 18.9725 23.9804 16.4688 23.9804 13.6795C23.9804 12.9075 24.0733 12.1566 24.251 11.4375L24.2377 11.5009L24.243 11.4983Z"/>
</mask>
<path d="M73.6549 48.7771C72.5381 48.3091 71.2409 48.0368 69.8801 48.0368C68.3495 48.0368 66.9011 48.3805 65.6066 48.9939L65.6676 48.9675L50.3403 55.8283C50.3483 55.7041 50.4093 55.5983 50.4093 55.4741C50.3695 51.8493 47.4144 48.9278 43.7722 48.9278C43.5892 48.9278 43.4088 48.9357 43.2311 48.949L43.2549 48.9463H33.2198L20.5929 45.2581C20.4284 45.2052 20.2401 45.1761 20.0438 45.1761H20.0332H14.2795V43.1747C14.2795 42.0801 13.3882 41.1918 12.29 41.1918H1.98953C0.891308 41.1918 0 42.0801 0 43.1747V75.4513C0 76.5459 0.891308 77.4342 1.98953 77.4342H12.29C13.3882 77.4342 14.2795 76.5459 14.2795 75.4513V72.7942C19.1021 73.545 23.418 74.7559 27.5085 76.4084L27.1132 76.2656C30.1639 77.3655 33.6866 78 37.358 78C37.3765 78 37.3951 78 37.4137 78H37.411C37.4243 78 37.4402 78 37.4561 78C41.7111 78 45.767 77.1566 49.4676 75.6258L49.2606 75.7025C52.558 74.2404 55.3566 72.699 58.0066 70.9461L57.7891 71.0809C58.6857 70.5284 59.577 69.9758 60.4789 69.4444C64.8108 66.8877 68.2911 64.6431 71.4319 62.3799C72.9678 61.2906 74.3048 60.2146 75.5781 59.0671L75.5409 59.1015C76.5304 58.303 77.3209 57.2983 77.8514 56.1509L77.8727 56.1007C77.9549 55.8918 78 55.6512 78 55.3974C78 55.2467 77.9841 55.1013 77.9522 54.9612L77.9549 54.9744C77.5676 52.2855 75.9521 50.0409 73.7026 48.7956L73.6602 48.7745L73.6549 48.7771ZM10.3004 73.471H3.97905V45.1576H10.3004V73.471ZM72.7397 56.2857C71.6468 57.264 70.4584 58.2131 69.2169 59.0935L69.0922 59.1782C66.0602 61.362 62.678 63.5406 58.4443 66.0417C57.5212 66.5837 56.6113 67.1468 55.6934 67.71C53.428 69.2249 50.8204 70.6711 48.0961 71.9032L47.7513 72.0433C44.6953 73.2965 41.146 74.0209 37.4269 74.0209C34.2357 74.0209 31.1692 73.4842 28.3123 72.5007L28.5086 72.5589C24.3836 70.8456 19.5875 69.5316 14.5872 68.8389L14.2768 68.8046V49.1446H19.7467L32.3736 52.8328C32.538 52.8857 32.7264 52.9148 32.9227 52.9148H32.9333H43.2523C45.5946 52.9148 46.4276 54.2923 46.4276 55.4767C46.4276 56.6612 45.5946 58.0386 43.2523 58.0386H25.19C24.0918 58.0386 23.2005 58.927 23.2005 60.0216C23.2005 61.1161 24.0918 62.0045 25.19 62.0045H45.8307H45.8413C46.1331 62.0045 46.409 61.941 46.6557 61.8247L46.6451 61.83L67.3229 52.5764C68.0869 52.2274 68.9808 52.0238 69.9225 52.0238C70.6255 52.0238 71.3019 52.1375 71.9333 52.3463L71.8882 52.3331C72.9042 52.9412 73.6337 53.93 73.883 55.0986L73.8883 55.1277C73.5276 55.5481 73.1509 55.9262 72.7503 56.2778L72.737 56.2884L72.7397 56.2857ZM40.146 40.9485C40.512 41.3531 41.0373 41.6042 41.6235 41.6042C42.2098 41.6042 42.735 41.3531 43.0984 40.9512L43.1011 40.9485L58.935 23.4566C61.8053 20.7942 63.6409 17.0557 63.7948 12.889V12.8625C63.7948 12.8308 63.7948 12.7938 63.7948 12.7568C63.7948 9.2351 62.3544 6.05186 60.028 3.75432C57.6299 1.43299 54.3565 0 50.7435 0C47.2048 0 43.9897 1.37482 41.605 3.6142C39.3475 1.70266 36.4083 0.534066 33.1879 0.534066C32.042 0.534066 30.9331 0.682123 29.8747 0.957088L29.9649 0.935936C25.3121 2.25259 21.723 5.83242 20.4231 10.372L20.3993 10.4698C20.1499 11.4322 20.0067 12.5347 20.0067 13.6742C20.0067 17.521 21.6487 20.9872 24.2749 23.4116L24.2828 23.4196L40.146 40.9485ZM24.243 11.4983C25.1741 8.22514 27.7075 5.70022 30.9225 4.78544L30.9915 4.76958C31.652 4.5845 32.4133 4.47875 33.1985 4.47875C35.9786 4.56864 38.4588 5.78219 40.2096 7.67521L40.2149 7.68314C40.5757 8.04271 41.0718 8.2648 41.6209 8.2648C42.17 8.2648 42.6687 8.04271 43.0268 7.68314C44.9951 5.52044 47.7751 4.12182 50.8814 3.96319H50.908H50.9743C55.8606 3.99492 59.8078 7.95017 59.8078 12.8229C59.8078 12.8281 59.8078 12.8308 59.8078 12.8361C59.6486 15.9612 58.2453 18.7293 56.086 20.6858L56.0781 20.6937L56.0065 20.7677L41.6182 36.6654L27.161 20.6937C25.206 18.9725 23.9804 16.4688 23.9804 13.6795C23.9804 12.9075 24.0733 12.1566 24.251 11.4375L24.2377 11.5009L24.243 11.4983Z" fill="black" stroke="white" stroke-width="1.4" mask="url(#path-1-inside-1_153_46)"/>
</svg>
