<svg width="78" height="78" viewBox="0 0 78 78" fill="none" xmlns="http://www.w3.org/2000/svg">
<path d="M38.9998 77.4181C39.1162 77.4181 39.2326 77.4181 39.349 77.3017C58.3251 70.8987 71.0148 53.2032 71.0148 33.1793V12.8062C71.0148 12.1077 70.549 11.642 69.8506 11.642C51.5729 11.642 40.5132 1.28084 39.6983 0.815163C39.2326 0.465909 38.767 0.465909 38.3013 0.815163C37.4864 1.28084 26.3103 11.642 8.14904 11.642C7.45053 11.642 6.98486 12.1077 6.98486 12.8062V33.1793C6.98486 53.2032 19.6745 70.8987 38.6506 77.4181C38.767 77.4181 38.8834 77.4181 38.9998 77.4181ZM9.31322 33.1793V13.9704C27.2415 13.5047 38.4177 3.49278 38.9998 3.14352C39.6983 3.49278 50.6415 13.5047 68.6864 13.9704V33.1793C68.6864 52.039 56.8117 68.8032 38.9998 75.0898C21.1879 68.8032 9.31322 52.039 9.31322 33.1793Z" fill="black"/>
<path d="M39.4651 71.1315C55.0651 64.9614 65.1934 50.0599 65.1934 33.1793V18.3942C65.1934 17.8121 64.7277 17.3465 64.1457 17.2301C55.2979 16.2987 46.7994 13.1554 39.5815 8.03302C39.2322 7.80019 38.6501 7.80019 38.3009 8.03302C31.0829 13.039 22.5845 16.1823 13.7367 17.2301C13.1546 17.3465 12.689 17.8121 12.689 18.3942V33.1793C12.689 50.0599 22.8173 64.9614 38.5337 71.1315C38.6501 71.1315 38.7665 71.2479 38.9993 71.2479C39.2322 71.2479 39.2322 71.2479 39.4651 71.1315ZM15.1337 33.1793V19.3256C23.6322 18.2778 31.8979 15.1345 38.9993 10.3614C46.1009 15.1345 54.3665 18.2778 62.8651 19.3256V33.0629C62.8651 48.8957 53.5516 62.8659 38.9993 68.8032C24.4471 62.8659 15.1337 48.8957 15.1337 33.1793Z" fill="black"/>
<path d="M52.8539 29.9196C52.3883 29.4539 51.6898 29.4539 51.2241 29.9196L33.9942 47.033L27.1256 40.1644C26.66 39.6986 25.9614 39.6986 25.4958 40.1644C25.0301 40.63 25.0301 41.3285 25.4958 41.7942L33.1794 49.4778C33.4122 49.7106 33.645 49.827 33.9942 49.827C34.3435 49.827 34.5764 49.7106 34.8092 49.4778L52.8539 31.433C53.3197 31.0838 53.3197 30.3852 52.8539 29.9196Z" fill="black"/>
</svg>
