<svg width="78" height="78" viewBox="0 0 78 78" fill="none" xmlns="http://www.w3.org/2000/svg">
<g clip-path="url(#clip0_153_41)">
<mask id="mask0_153_41" style="mask-type:luminance" maskUnits="userSpaceOnUse" x="0" y="0" width="78" height="78">
<path d="M78 0H0V78H78V0Z" fill="white"/>
</mask>
<g mask="url(#mask0_153_41)">
<path d="M63.7161 59.9869C62.8511 59.9821 62.0042 60.2344 61.283 60.712C60.5618 61.1896 59.9987 61.8708 59.6656 62.669C59.3323 63.4673 59.2438 64.3466 59.4114 65.1952C59.579 66.0438 59.995 66.8235 60.6067 67.4352C61.2183 68.0468 61.998 68.4628 62.8466 68.6304C63.6952 68.798 64.5745 68.7095 65.3728 68.3763C66.171 68.043 66.8522 67.48 67.3298 66.7588C67.8073 66.0376 68.0598 65.1906 68.0549 64.3256C68.0549 63.175 67.5978 62.0713 66.7841 61.2577C65.9704 60.444 64.8669 59.9869 63.7161 59.9869ZM63.7161 66.3244C63.3199 66.3293 62.931 66.2162 62.5992 65.9994C62.2673 65.7828 62.0073 65.4723 61.8523 65.1076C61.6973 64.7428 61.6542 64.3402 61.7286 63.9509C61.8028 63.5616 61.9913 63.2031 62.2699 62.9212C62.5484 62.6391 62.9044 62.4464 63.2928 62.3673C63.6811 62.2881 64.0843 62.3263 64.4509 62.4769C64.8176 62.6274 65.1312 62.8835 65.3519 63.2127C65.5726 63.5419 65.6905 63.9292 65.6905 64.3256C65.6906 64.8515 65.4834 65.3563 65.1138 65.7304C64.7441 66.1046 64.242 66.318 63.7161 66.3244ZM19.0124 59.9869C18.1474 59.9821 17.3005 60.2344 16.5792 60.712C15.858 61.1896 15.295 61.8708 14.9618 62.669C14.6285 63.4673 14.5401 64.3466 14.7077 65.1952C14.8752 66.0438 15.2913 66.8235 15.9029 67.4352C16.5145 68.0468 17.2943 68.4628 18.1429 68.6304C18.9915 68.798 19.8707 68.7095 20.669 68.3763C21.4673 68.043 22.1484 67.48 22.626 66.7588C23.1036 66.0376 23.356 65.1906 23.3511 64.3256C23.3511 63.175 22.894 62.0713 22.0804 61.2577C21.2667 60.444 20.1632 59.9869 19.0124 59.9869ZM19.0124 66.3244C18.6171 66.3244 18.2306 66.2072 17.902 65.9876C17.5733 65.7679 17.3171 65.4557 17.1658 65.0906C17.0145 64.7253 16.9749 64.3234 17.0521 63.9357C17.1292 63.548 17.3195 63.1919 17.5991 62.9123C17.8786 62.6328 18.2348 62.4424 18.6225 62.3653C19.0102 62.2881 19.4121 62.3278 19.7773 62.4791C20.1425 62.6303 20.4547 62.8865 20.6743 63.2152C20.894 63.5439 21.0111 63.9303 21.0111 64.3256C21.0111 64.5881 20.9595 64.8481 20.859 65.0906C20.7585 65.333 20.6113 65.5533 20.4258 65.7389C20.2402 65.9245 20.0198 66.0718 19.7773 66.1723C19.5348 66.2727 19.2749 66.3244 19.0124 66.3244Z" fill="black"/>
<path d="M77.8294 45.0208L71.0288 33.6864L70.785 33.2477C69.8174 31.5072 68.4048 30.0551 66.6916 29.04C64.9784 28.025 63.0263 27.4834 61.035 27.4708H49.5544V17.0627C49.5577 16.9069 49.5297 16.7522 49.4724 16.6074C49.415 16.4627 49.3294 16.3308 49.2204 16.2196C49.1115 16.1083 48.9813 16.02 48.8378 15.9596C48.6942 15.8993 48.5401 15.8682 48.3844 15.8683H37.6106C37.7723 14.4688 37.8212 13.0587 37.7569 11.6514C37.7206 11.3628 37.5783 11.0982 37.3574 10.9088C37.1366 10.7196 36.8532 10.6193 36.5625 10.6277C34.9294 10.6277 32.5406 10.1889 31.6875 5.53329C31.6364 5.26 31.4916 5.01309 31.2781 4.83511C31.0645 4.65713 30.7956 4.55923 30.5175 4.55829H19.0369C18.7611 4.55341 18.4925 4.64611 18.2783 4.82005C18.0643 4.99398 17.9185 5.23796 17.8669 5.50891C17.0625 10.1889 14.625 10.6764 13.0163 10.6277C12.714 10.6208 12.4209 10.7311 12.1982 10.9356C11.9756 11.1401 11.8407 11.4228 11.8219 11.7245C11.7427 13.1316 11.7916 14.5431 11.9681 15.9414H1.17C0.869731 15.947 0.58258 16.0654 0.365753 16.2733C0.148925 16.481 0.0183353 16.7629 0 17.0627V64.3502C0.00623121 64.6585 0.131499 64.9525 0.349581 65.1706C0.567662 65.3886 0.861649 65.514 1.17 65.5202H9.99375C10.2943 67.7018 11.3744 69.7009 13.0346 71.1479C14.6947 72.5949 16.8225 73.3921 19.0246 73.3921C21.2269 73.3921 23.3547 72.5949 25.0148 71.1479C26.6749 69.7009 27.7551 67.7018 28.0556 65.5202H54.6975C54.9775 67.7144 56.0478 69.7313 57.7079 71.1931C59.3681 72.6548 61.5042 73.4612 63.7163 73.4612C65.9283 73.4612 68.0644 72.6548 69.7246 71.1931C71.3847 69.7313 72.455 67.7144 72.735 65.5202H76.83C77.1384 65.514 77.4324 65.3886 77.6504 65.1706C77.8685 64.9525 77.9938 64.6585 78 64.3502V45.6302C78.0073 45.4143 77.9477 45.2014 77.8294 45.0208ZM19.9875 6.92266H29.5912C29.767 8.42642 30.4326 9.83057 31.4854 10.9187C32.5382 12.0067 33.9197 12.7182 35.4169 12.9433C35.4095 14.3222 35.3037 15.6988 35.1 17.0627C34.7671 20.2227 33.6495 23.2495 31.8487 25.8675C30.048 28.4857 27.6213 30.612 24.7894 32.0533C21.9534 30.6174 19.5231 28.4924 17.7217 25.8733C15.9202 23.2542 14.8052 20.2247 14.4787 17.0627C14.2565 15.7007 14.1424 14.3233 14.1375 12.9433C15.6391 12.723 17.0262 12.0138 18.0838 10.9253C19.1414 9.83686 19.8105 8.42996 19.9875 6.92266ZM19.0369 71.0777C17.6994 71.0825 16.3906 70.69 15.2766 69.9499C14.1625 69.2098 13.2933 68.1556 12.7793 66.9209C12.2652 65.6862 12.1294 64.3266 12.3892 63.0146C12.6489 61.7026 13.2925 60.4972 14.2383 59.5515C15.1839 58.6058 16.3893 57.9622 17.7013 57.7025C19.0133 57.4427 20.3729 57.5785 21.6076 58.0925C22.8423 58.6066 23.8966 59.4758 24.6367 60.5899C25.3767 61.7039 25.7692 63.0127 25.7644 64.3502C25.758 66.1324 25.0471 67.8399 23.7868 69.1001C22.5266 70.3604 20.8192 71.0712 19.0369 71.0777ZM47.2144 28.6408V63.1558H28.0556V62.4245L27.9094 61.8883V61.5958L27.495 60.9377V60.7427L27.1294 59.9627C27.1219 59.8979 27.1219 59.8325 27.1294 59.7677L26.8125 59.2314L26.6175 58.9877C26.5258 58.8395 26.4196 58.7007 26.3006 58.5733L26.0812 58.3052L25.74 57.9395L25.4719 57.6714L25.1306 57.3545L24.8381 57.1352L24.375 56.8914L24.0825 56.672L23.6681 56.4283L23.3512 56.2577L22.7906 56.0627L22.4494 55.9164L21.9375 55.7214L21.5962 55.5995H19.9144C19.6224 55.5753 19.3288 55.5753 19.0369 55.5995C18.7368 55.5745 18.4351 55.5745 18.135 55.5995H16.4287L16.0631 55.7214L15.6 55.892L15.2587 56.0627L14.8444 56.282L14.625 56.4283L14.235 56.672L13.9181 56.8914L13.5281 57.1839L13.2356 57.4033L12.8944 57.7202L12.6262 57.9883L12.1875 58.3539C12.0938 58.4311 12.0117 58.5214 11.9438 58.622L11.6269 59.0364L11.4563 59.2802L11.115 59.8164V60.0114C10.9687 60.2592 10.8463 60.5205 10.7494 60.7914C10.7494 60.7914 10.7494 60.7914 10.7494 60.9864L10.53 61.5958V61.8883L10.3838 62.4245V63.1558H2.4375V18.3058H12.3094V18.7202L12.5531 19.5002V19.9633C12.5985 20.1855 12.6555 20.4052 12.7237 20.6214L12.87 21.1089L13.065 21.7427C13.065 21.9133 13.065 22.0839 13.2356 22.2789C13.3063 22.4861 13.3876 22.6895 13.4794 22.8883C13.4794 23.0833 13.4794 23.2539 13.6744 23.4245L13.9425 24.0583L14.1862 24.5702L14.5031 25.2039C14.5829 25.3794 14.6724 25.5503 14.7713 25.7158L15.1125 26.3252C15.2271 26.4985 15.3328 26.6774 15.4294 26.8614L15.8194 27.4464L16.185 27.9583L16.6237 28.5433L17.0137 29.0308L17.5256 29.5914L17.94 30.0545L18.525 30.6152L18.9881 31.0539L19.6219 31.5902L20.1094 31.9802L20.865 32.492L21.3525 32.8577L22.2544 33.3695C22.4001 33.4731 22.5551 33.5629 22.7175 33.6377C23.1899 33.9105 23.6783 34.1547 24.18 34.3689C24.3415 34.3941 24.506 34.3941 24.6675 34.3689C24.82 34.4034 24.9782 34.4034 25.1306 34.3689C25.6425 34.1495 26.13 33.9058 26.6175 33.6377L27.0562 33.3939L27.9581 32.8577L28.47 32.5164C28.7237 32.3516 28.9678 32.1725 29.2012 31.9802L29.6887 31.5902L30.3469 31.0539L30.7856 30.6395L31.3706 30.0789L31.785 29.6158C31.9556 29.4208 32.1506 29.2258 32.2969 29.0308C32.4431 28.8358 32.565 28.7139 32.6869 28.5677L33.15 27.9583C33.2555 27.7902 33.3694 27.6275 33.4912 27.4708L34.125 26.8127C34.2393 26.6476 34.3452 26.4767 34.4419 26.3008C34.57 26.0976 34.684 25.8859 34.7831 25.667L35.0756 25.1552L35.3681 24.5214C35.4592 24.3557 35.5406 24.1848 35.6119 24.0095C35.6119 23.7902 35.8069 23.5952 35.88 23.3758L36.0994 22.8639L36.3187 22.2058C36.3187 22.0352 36.4406 21.8645 36.4894 21.7183L36.5625 21.0358C36.6145 20.8846 36.6552 20.7298 36.6844 20.5727C36.6844 20.3533 36.6844 20.1095 36.8794 19.8902C37.0744 19.6708 36.8794 19.5977 36.8794 19.4514C36.8794 19.3052 36.8794 18.9883 37.0256 18.7445C37.0367 18.6148 37.0367 18.4843 37.0256 18.3545H46.995L47.2144 28.6408ZM69.3469 35.4902L75.5625 45.6302H62.01C60.8912 45.6303 59.8172 45.191 59.0193 44.4067C58.2214 43.6226 57.7635 42.5563 57.7444 41.4377V35.4902H69.3469ZM63.7163 71.0777C62.3798 71.0777 61.0735 70.681 59.9626 69.9381C58.8517 69.195 57.9864 68.1391 57.4761 66.904C56.9657 65.6688 56.8335 64.3099 57.0959 62.9995C57.3585 61.6891 58.0039 60.4862 58.9506 59.5429C59.8974 58.5995 61.1027 57.9584 62.414 57.7007C63.7254 57.4429 65.0837 57.5801 66.317 58.0949C67.5503 58.6096 68.6031 59.4789 69.3421 60.5924C70.0811 61.706 70.4729 63.0137 70.4681 64.3502C70.4617 66.1366 69.7475 67.8478 68.482 69.1087C67.2164 70.3696 65.5027 71.0777 63.7163 71.0777ZM75.5625 63.1558H72.7594V62.4245C72.7304 62.2434 72.6897 62.0642 72.6375 61.8883C72.627 61.7911 72.627 61.693 72.6375 61.5958L72.1744 60.9377V60.7427L71.8087 59.9627L71.6869 59.7677C71.5904 59.5837 71.4846 59.4047 71.37 59.2314L71.175 58.9877C71.0833 58.8395 70.9771 58.7007 70.8581 58.5733L70.6875 58.3539L70.3462 57.9883C70.2631 57.8929 70.1735 57.8033 70.0781 57.7202L69.7369 57.4033L69.4444 57.1839L69.0787 56.8914L68.7619 56.672L68.3475 56.4283L68.0306 56.2577L67.47 56.0627L67.1287 55.9164L66.6656 55.7458L66.3244 55.6239H64.6181C64.318 55.6003 64.0164 55.6003 63.7163 55.6239C63.4161 55.5989 63.1145 55.5989 62.8144 55.6239H61.1081L60.7669 55.7458L60.3038 55.9164L59.9625 56.0627L59.5237 56.282L59.1825 56.4527L58.7925 56.6964L58.4756 56.9158L58.0856 57.2083L57.8175 57.4277L57.4519 57.7445L57.1837 58.0127L56.8669 58.3783L56.6231 58.6464L56.3306 59.0608L56.1356 59.3045C56.021 59.4778 55.9153 59.6568 55.8187 59.8408C55.8113 59.9056 55.8113 59.971 55.8187 60.0358C55.6725 60.2836 55.5501 60.5448 55.4531 60.8158V61.0108C55.3547 61.2039 55.281 61.4086 55.2337 61.6202C55.2233 61.7174 55.2233 61.8154 55.2337 61.9127L55.0875 62.4489V63.1802H49.9687V29.8352H60.9375C62.2569 29.8316 63.5602 30.1256 64.7503 30.6953C65.9403 31.2651 66.9866 32.0958 67.8112 33.1258H56.5744C56.4187 33.1225 56.2639 33.1504 56.1191 33.2078C55.9744 33.2651 55.8425 33.3508 55.7313 33.4597C55.62 33.5687 55.5317 33.6987 55.4713 33.8423C55.411 33.9859 55.38 34.1401 55.38 34.2958V41.4377C55.3865 43.1918 56.0878 44.8719 57.3304 46.11C58.5731 47.3481 60.2558 48.0433 62.01 48.0433H75.5625V63.1558Z" fill="black"/>
<path d="M22.328 23.497C22.5597 23.7135 22.864 23.8353 23.1811 23.8383C23.4902 23.8316 23.7856 23.7099 24.0098 23.497L30.3473 17.062C30.4752 16.9559 30.5795 16.8243 30.6535 16.6756C30.7276 16.5269 30.7699 16.3643 30.7775 16.1984C30.7852 16.0324 30.7582 15.8666 30.6982 15.7117C30.6382 15.5567 30.5465 15.4161 30.429 15.2985C30.3115 15.1811 30.1708 15.0894 30.0158 15.0293C29.8609 14.9693 29.6952 14.9423 29.5292 14.95C29.3632 14.9576 29.2007 14.9999 29.0519 15.074C28.9032 15.148 28.7716 15.2524 28.6655 15.3802L23.1811 20.9864L20.8898 18.6952C20.6661 18.4734 20.3639 18.349 20.0489 18.349C19.7339 18.349 19.4316 18.4734 19.208 18.6952C18.9973 18.9246 18.8804 19.2247 18.8804 19.5362C18.8804 19.8476 18.9973 20.1477 19.208 20.377L22.328 23.497Z" fill="black"/>
</g>
</g>
<defs>
<clipPath id="clip0_153_41">
<rect width="78" height="78" fill="white"/>
</clipPath>
</defs>
</svg>
